<svg width="1270" height="159" viewBox="0 0 1270 159" fill="none" xmlns="http://www.w3.org/2000/svg">
<g clip-path="url(#clip0_462_183)">
<g opacity="0.6" filter="url(#filter0_d_462_183)">
<path d="M131.647 243.927L88.9482 244.056L2.17676 17.4287L47.1494 17.291L108.826 179.425L110.226 183.105L111.629 179.426L173.597 16.9141L218.25 16.8105L131.647 243.927Z" stroke="#073984" stroke-width="3" shape-rendering="crispEdges"/>
</g>
<g opacity="0.6" filter="url(#filter1_d_462_183)">
<path d="M302.895 68.0659H302.899C313.398 68.0054 323.796 69.9695 333.446 73.8325C343.095 77.6955 351.786 83.3744 358.981 90.5103L361.538 93.0454V72.3892L403.875 72.2261L404.431 239.23L361.986 239.357V219.287L359.42 221.875C352.427 228.93 343.934 234.546 334.481 238.36C325.027 242.174 314.825 244.1 304.527 244.012H304.508C259.184 244.182 219.414 207.823 219.245 156.467C219.063 104.117 256.584 68.1995 302.895 68.0659ZM312.311 104.108C296.875 104.159 284.269 109.959 275.542 119.392C266.84 128.799 262.069 141.737 262.104 155.975C261.573 162.542 262.478 169.141 264.76 175.366C267.051 181.613 270.678 187.348 275.416 192.22C280.152 197.093 285.899 201 292.296 203.707C298.693 206.413 305.61 207.863 312.623 207.97L313.242 207.98L313.316 207.907C327.034 206.772 339.834 200.892 349.204 191.371C358.7 181.72 363.969 169.044 363.924 155.879C363.88 142.715 358.524 130.07 348.962 120.476C339.404 110.886 326.347 105.05 312.417 104.112L312.364 104.108H312.311Z" stroke="#073984" stroke-width="3" shape-rendering="crispEdges"/>
</g>
<g opacity="0.6" filter="url(#filter2_d_462_183)">
<path d="M524.971 193.567C524.956 189.296 522.743 185.723 519.089 182.53C515.458 179.357 510.253 176.419 503.894 173.384L503.891 173.383L488.486 166.062L488.48 166.059C459.588 152.477 445.501 136.254 445.422 115.704C445.694 109.056 447.39 102.524 450.413 96.4956C453.441 90.4575 457.741 85.0459 463.059 80.5864C468.377 76.1268 474.606 72.712 481.374 70.5503C488.143 68.3886 495.31 67.5256 502.446 68.0142L502.502 68.0181H502.559C513.973 67.933 525.243 70.376 535.449 75.146C545.23 79.7171 553.762 86.2991 560.418 94.3833L534.587 119.028C526.489 110.51 515.247 105.184 503.125 104.138L503.059 104.132L502.992 104.133C498.218 104.146 493.836 105.063 490.591 106.971C487.292 108.911 485.127 111.923 485.127 115.922V115.925C485.135 119.776 487.156 122.488 490.245 124.761C493.258 126.978 497.532 128.957 502.426 131.31L502.434 131.314L519.212 139.266C534.216 146.399 545.565 153.55 553.173 161.943C560.731 170.28 564.645 179.894 564.69 192.119C564.734 206.871 558.56 219.757 547.557 228.995C536.538 238.246 520.599 243.896 501.078 243.951H501.043C488.953 244.267 476.963 241.849 466.09 236.905C455.628 232.147 446.501 225.188 439.415 216.587L465.293 189.826C474.881 200.463 488.43 207.283 503.191 208.889L503.274 208.898H503.358C509.25 208.879 514.585 207.274 518.49 204.586C522.394 201.899 524.971 198.038 524.971 193.573V193.567Z" stroke="#073984" stroke-width="3" shape-rendering="crispEdges"/>
</g>
<g opacity="0.6" filter="url(#filter3_d_462_183)">
<path d="M641.158 76.9117L641.718 243.927L599.267 244.052L598.707 77.0366L641.158 76.9117Z" stroke="#073984" stroke-width="3" shape-rendering="crispEdges"/>
</g>
<g opacity="0.6" filter="url(#filter4_d_462_183)">
<path d="M619.489 1.50684H619.506C623.202 1.54524 626.853 2.26682 630.246 3.62891C633.639 4.991 636.705 6.96466 639.271 9.43262C641.837 11.9004 643.852 14.814 645.205 18.002C646.558 21.1897 647.225 24.5927 647.169 28.0166V28.0479C647.182 31.4112 646.487 34.7465 645.122 37.8643C643.756 40.9826 641.745 43.8258 639.199 46.2266C636.652 48.6274 633.62 50.5391 630.273 51.8486C626.939 53.1533 623.36 53.8325 619.742 53.8467C615.958 53.7173 612.24 52.8919 608.802 51.4189C605.359 49.9443 602.268 47.8512 599.7 45.2637C597.132 42.6762 595.138 39.6456 593.829 36.3477C592.52 33.0501 591.919 29.546 592.057 26.0352V26.0225L592.058 26.0107C592.132 22.7343 592.894 19.5003 594.305 16.4941C595.716 13.4876 597.75 10.7645 600.294 8.4834C602.838 6.20213 605.842 4.40882 609.137 3.20996C612.432 2.01111 615.95 1.43195 619.489 1.50684Z" stroke="#073984" stroke-width="3" shape-rendering="crispEdges"/>
</g>
<g opacity="0.6" filter="url(#filter5_d_462_183)">
<path d="M733.091 75.4106L733.096 76.9097L734.595 76.9058L760.092 76.8354L760.201 110.33L734.705 110.413L733.205 110.417L733.21 111.917L733.653 243.976L691.202 244.103L690.76 112.043L690.754 110.544L689.255 110.548L667.52 110.605L667.411 77.0991L689.145 77.0425L690.646 77.0386L690.64 75.5376L690.434 14.2886L732.885 14.1616L733.091 75.4106Z" stroke="#073984" stroke-width="3" shape-rendering="crispEdges"/>
</g>
<g opacity="0.6" filter="url(#filter6_d_462_183)">
<path d="M944.56 149.602C944.666 180.967 942.666 203.452 924.041 222.893C916.815 230.188 907.93 235.881 898.035 239.547C888.132 243.216 877.475 244.761 866.846 244.065L866.796 244.062H866.745C845.075 244.123 827.727 239.027 814.92 229.158C802.327 219.454 793.969 205.016 790.273 185.916L790.101 185.002C788.309 173.243 787.703 161.351 788.289 149.485L788.291 149.446V149.406L788.044 73.1069L830.496 72.98L830.781 160.174C830.828 175.503 833.44 187.479 839.288 195.642C845.209 203.908 854.275 208.034 866.608 207.996H866.609C879.094 207.951 888.132 203.864 893.966 195.848C899.55 188.175 902.026 177.129 902.133 163.238L902.135 161.884L901.837 72.7739L944.301 72.6587L944.56 149.602Z" stroke="#073984" stroke-width="3" shape-rendering="crispEdges"/>
</g>
<g opacity="0.6" filter="url(#filter7_d_462_183)">
<path d="M1207.26 71.9155C1216.21 71.6259 1225.11 73.2039 1233.32 76.5337C1241.51 79.8584 1248.81 84.8441 1254.68 91.1235C1266.28 104.715 1267.74 122.726 1267.88 145.156L1268.2 243.227L1225.75 243.355L1225.44 151.042V151.041L1225.42 149.731C1225.21 136.298 1222.5 125.977 1217.16 118.932C1211.58 111.582 1203.31 108.019 1192.69 108.019H1192.69C1180.84 108.057 1170.58 112.409 1163.33 121.348C1156.11 130.249 1152 143.528 1152.06 161.192L1152.35 243.574L1109.9 243.701L1109.63 162.913C1109.57 146.387 1107.83 132.784 1102.74 123.288C1100.18 118.504 1096.76 114.736 1092.27 112.182C1087.79 109.632 1082.34 108.347 1075.82 108.366C1064.12 108.398 1053.95 112.927 1046.75 122.02C1039.58 131.075 1035.48 144.505 1035.54 162.169L1035.81 243.908L993.359 244.035L992.802 77.0308L1035.25 76.9038V98.7183L1037.84 95.9526C1044.78 88.5558 1053.32 82.6148 1062.9 78.5269C1072.48 74.4388 1082.88 72.2981 1093.41 72.2495H1093.43L1093.45 72.2485C1104.2 71.9487 1114.81 74.5792 1123.99 79.812C1133.17 85.0444 1140.52 92.65 1145.15 101.695L1146.3 103.93L1147.72 101.862C1154.11 92.5851 1162.92 84.9658 1173.32 79.7251C1183.72 74.4843 1195.38 71.7956 1207.2 71.9155L1207.23 71.9165L1207.26 71.9155Z" stroke="#073984" stroke-width="3" shape-rendering="crispEdges"/>
</g>
</g>
<defs>
<filter id="filter0_d_462_183" x="-1" y="15.3057" width="228.43" height="238.254" filterUnits="userSpaceOnUse" color-interpolation-filters="sRGB">
<feFlood flood-opacity="0" result="BackgroundImageFix"/>
<feColorMatrix in="SourceAlpha" type="matrix" values="0 0 0 0 0 0 0 0 0 0 0 0 0 0 0 0 0 0 127 0" result="hardAlpha"/>
<feOffset dx="3" dy="4"/>
<feGaussianBlur stdDeviation="2"/>
<feComposite in2="hardAlpha" operator="out"/>
<feColorMatrix type="matrix" values="0 0 0 0 0.0060478 0 0 0 0 0.0538995 0 0 0 0 0.136765 0 0 0 0.3 0"/>
<feBlend mode="normal" in2="BackgroundImageFix" result="effect1_dropShadow_462_183"/>
<feBlend mode="normal" in="SourceGraphic" in2="effect1_dropShadow_462_183" result="shape"/>
</filter>
<filter id="filter1_d_462_183" x="216.744" y="66.5649" width="196.194" height="186.95" filterUnits="userSpaceOnUse" color-interpolation-filters="sRGB">
<feFlood flood-opacity="0" result="BackgroundImageFix"/>
<feColorMatrix in="SourceAlpha" type="matrix" values="0 0 0 0 0 0 0 0 0 0 0 0 0 0 0 0 0 0 127 0" result="hardAlpha"/>
<feOffset dx="3" dy="4"/>
<feGaussianBlur stdDeviation="2"/>
<feComposite in2="hardAlpha" operator="out"/>
<feColorMatrix type="matrix" values="0 0 0 0 0.0060478 0 0 0 0 0.0538995 0 0 0 0 0.136765 0 0 0 0.3 0"/>
<feBlend mode="normal" in2="BackgroundImageFix" result="effect1_dropShadow_462_183"/>
<feBlend mode="normal" in="SourceGraphic" in2="effect1_dropShadow_462_183" result="shape"/>
</filter>
<filter id="filter2_d_462_183" x="436.414" y="66.3813" width="136.776" height="187.097" filterUnits="userSpaceOnUse" color-interpolation-filters="sRGB">
<feFlood flood-opacity="0" result="BackgroundImageFix"/>
<feColorMatrix in="SourceAlpha" type="matrix" values="0 0 0 0 0 0 0 0 0 0 0 0 0 0 0 0 0 0 127 0" result="hardAlpha"/>
<feOffset dx="3" dy="4"/>
<feGaussianBlur stdDeviation="2"/>
<feComposite in2="hardAlpha" operator="out"/>
<feColorMatrix type="matrix" values="0 0 0 0 0.0060478 0 0 0 0 0.0538995 0 0 0 0 0.136765 0 0 0 0.3 0"/>
<feBlend mode="normal" in2="BackgroundImageFix" result="effect1_dropShadow_462_183"/>
<feBlend mode="normal" in="SourceGraphic" in2="effect1_dropShadow_462_183" result="shape"/>
</filter>
<filter id="filter3_d_462_183" x="596.202" y="75.4072" width="54.0208" height="178.149" filterUnits="userSpaceOnUse" color-interpolation-filters="sRGB">
<feFlood flood-opacity="0" result="BackgroundImageFix"/>
<feColorMatrix in="SourceAlpha" type="matrix" values="0 0 0 0 0 0 0 0 0 0 0 0 0 0 0 0 0 0 127 0" result="hardAlpha"/>
<feOffset dx="3" dy="4"/>
<feGaussianBlur stdDeviation="2"/>
<feComposite in2="hardAlpha" operator="out"/>
<feColorMatrix type="matrix" values="0 0 0 0 0.0060478 0 0 0 0 0.0538995 0 0 0 0 0.136765 0 0 0 0.3 0"/>
<feBlend mode="normal" in2="BackgroundImageFix" result="effect1_dropShadow_462_183"/>
<feBlend mode="normal" in="SourceGraphic" in2="effect1_dropShadow_462_183" result="shape"/>
</filter>
<filter id="filter4_d_462_183" x="589.538" y="0" width="66.1343" height="63.3472" filterUnits="userSpaceOnUse" color-interpolation-filters="sRGB">
<feFlood flood-opacity="0" result="BackgroundImageFix"/>
<feColorMatrix in="SourceAlpha" type="matrix" values="0 0 0 0 0 0 0 0 0 0 0 0 0 0 0 0 0 0 127 0" result="hardAlpha"/>
<feOffset dx="3" dy="4"/>
<feGaussianBlur stdDeviation="2"/>
<feComposite in2="hardAlpha" operator="out"/>
<feColorMatrix type="matrix" values="0 0 0 0 0.0060478 0 0 0 0 0.0538995 0 0 0 0 0.136765 0 0 0 0.3 0"/>
<feBlend mode="normal" in2="BackgroundImageFix" result="effect1_dropShadow_462_183"/>
<feBlend mode="normal" in="SourceGraphic" in2="effect1_dropShadow_462_183" result="shape"/>
</filter>
<filter id="filter5_d_462_183" x="664.906" y="12.6577" width="103.8" height="240.95" filterUnits="userSpaceOnUse" color-interpolation-filters="sRGB">
<feFlood flood-opacity="0" result="BackgroundImageFix"/>
<feColorMatrix in="SourceAlpha" type="matrix" values="0 0 0 0 0 0 0 0 0 0 0 0 0 0 0 0 0 0 127 0" result="hardAlpha"/>
<feOffset dx="3" dy="4"/>
<feGaussianBlur stdDeviation="2"/>
<feComposite in2="hardAlpha" operator="out"/>
<feColorMatrix type="matrix" values="0 0 0 0 0.0060478 0 0 0 0 0.0538995 0 0 0 0 0.136765 0 0 0 0.3 0"/>
<feBlend mode="normal" in2="BackgroundImageFix" result="effect1_dropShadow_462_183"/>
<feBlend mode="normal" in="SourceGraphic" in2="effect1_dropShadow_462_183" result="shape"/>
</filter>
<filter id="filter6_d_462_183" x="785.54" y="71.1548" width="167.524" height="182.573" filterUnits="userSpaceOnUse" color-interpolation-filters="sRGB">
<feFlood flood-opacity="0" result="BackgroundImageFix"/>
<feColorMatrix in="SourceAlpha" type="matrix" values="0 0 0 0 0 0 0 0 0 0 0 0 0 0 0 0 0 0 127 0" result="hardAlpha"/>
<feOffset dx="3" dy="4"/>
<feGaussianBlur stdDeviation="2"/>
<feComposite in2="hardAlpha" operator="out"/>
<feColorMatrix type="matrix" values="0 0 0 0 0.0060478 0 0 0 0 0.0538995 0 0 0 0 0.136765 0 0 0 0.3 0"/>
<feBlend mode="normal" in2="BackgroundImageFix" result="effect1_dropShadow_462_183"/>
<feBlend mode="normal" in="SourceGraphic" in2="effect1_dropShadow_462_183" result="shape"/>
</filter>
<filter id="filter7_d_462_183" x="990.297" y="70.3813" width="286.409" height="183.159" filterUnits="userSpaceOnUse" color-interpolation-filters="sRGB">
<feFlood flood-opacity="0" result="BackgroundImageFix"/>
<feColorMatrix in="SourceAlpha" type="matrix" values="0 0 0 0 0 0 0 0 0 0 0 0 0 0 0 0 0 0 127 0" result="hardAlpha"/>
<feOffset dx="3" dy="4"/>
<feGaussianBlur stdDeviation="2"/>
<feComposite in2="hardAlpha" operator="out"/>
<feColorMatrix type="matrix" values="0 0 0 0 0.0060478 0 0 0 0 0.0538995 0 0 0 0 0.136765 0 0 0 0.3 0"/>
<feBlend mode="normal" in2="BackgroundImageFix" result="effect1_dropShadow_462_183"/>
<feBlend mode="normal" in="SourceGraphic" in2="effect1_dropShadow_462_183" result="shape"/>
</filter>
<clipPath id="clip0_462_183">
<rect width="1270" height="159" fill="white"/>
</clipPath>
</defs>
</svg>
