<svg width="212" height="106" viewBox="0 0 212 106" fill="none" xmlns="http://www.w3.org/2000/svg">
<g filter="url(#filter0_dd_472_234)">
<path d="M16.0641 12.8513C16.0641 5.75373 21.8179 0 28.9155 0H182.213C189.31 0 195.064 5.75373 195.064 12.8513V60.1487C195.064 67.2463 189.31 73 182.213 73H28.9155C21.8179 73 16.0641 67.2463 16.0641 60.1487V12.8513Z" fill="white" shape-rendering="crispEdges"/>
<g clip-path="url(#clip0_472_234)">
<path d="M37.119 26.1131C40.8946 26.1131 43.9554 23.0524 43.9554 19.2768C43.9554 15.5012 40.8946 12.4404 37.119 12.4404C33.3434 12.4404 30.2827 15.5012 30.2827 19.2768C30.2827 23.0524 33.3434 26.1131 37.119 26.1131Z" stroke="#00C950" stroke-width="1.36727" stroke-linecap="round" stroke-linejoin="round"/>
<path d="M35.0682 19.2769L36.4355 20.6442L39.17 17.9097" stroke="#00C950" stroke-width="1.36727" stroke-linecap="round" stroke-linejoin="round"/>
</g>
<path d="M58.5227 23.6545L57.0627 21.0045H56.6527V23.6545H54.9427V16.6345H57.8127C58.366 16.6345 58.836 16.7312 59.2227 16.9245C59.616 17.1179 59.9094 17.3845 60.1027 17.7245C60.296 18.0579 60.3927 18.4312 60.3927 18.8445C60.3927 19.3112 60.2594 19.7279 59.9927 20.0945C59.7327 20.4612 59.346 20.7212 58.8327 20.8745L60.4527 23.6545H58.5227ZM56.6527 19.7945H57.7127C58.026 19.7945 58.2594 19.7179 58.4127 19.5645C58.5727 19.4112 58.6527 19.1945 58.6527 18.9145C58.6527 18.6479 58.5727 18.4379 58.4127 18.2845C58.2594 18.1312 58.026 18.0545 57.7127 18.0545H56.6527V19.7945ZM66.7261 20.7745C66.7261 20.9345 66.7161 21.1012 66.6961 21.2745H62.8261C62.8528 21.6212 62.9628 21.8879 63.1561 22.0745C63.3561 22.2545 63.5995 22.3445 63.8861 22.3445C64.3128 22.3445 64.6095 22.1645 64.7761 21.8045H66.5961C66.5028 22.1712 66.3328 22.5012 66.0861 22.7945C65.8461 23.0879 65.5428 23.3179 65.1761 23.4845C64.8095 23.6512 64.3995 23.7345 63.9461 23.7345C63.3995 23.7345 62.9128 23.6179 62.4861 23.3845C62.0595 23.1512 61.7261 22.8179 61.4861 22.3845C61.2461 21.9512 61.1261 21.4445 61.1261 20.8645C61.1261 20.2845 61.2428 19.7779 61.4761 19.3445C61.7161 18.9112 62.0495 18.5779 62.4761 18.3445C62.9028 18.1112 63.3928 17.9945 63.9461 17.9945C64.4861 17.9945 64.9661 18.1079 65.3861 18.3345C65.8061 18.5612 66.1328 18.8845 66.3661 19.3045C66.6061 19.7245 66.7261 20.2145 66.7261 20.7745ZM64.9761 20.3245C64.9761 20.0312 64.8761 19.7979 64.6761 19.6245C64.4761 19.4512 64.2261 19.3645 63.9261 19.3645C63.6395 19.3645 63.3961 19.4479 63.1961 19.6145C63.0028 19.7812 62.8828 20.0179 62.8361 20.3245H64.9761ZM69.8982 23.7345C69.4116 23.7345 68.9782 23.6512 68.5982 23.4845C68.2182 23.3179 67.9182 23.0912 67.6982 22.8045C67.4782 22.5112 67.3549 22.1845 67.3282 21.8245H69.0182C69.0382 22.0179 69.1282 22.1745 69.2882 22.2945C69.4482 22.4145 69.6449 22.4745 69.8782 22.4745C70.0916 22.4745 70.2549 22.4345 70.3682 22.3545C70.4882 22.2679 70.5482 22.1579 70.5482 22.0245C70.5482 21.8645 70.4649 21.7479 70.2982 21.6745C70.1316 21.5945 69.8616 21.5079 69.4882 21.4145C69.0882 21.3212 68.7549 21.2245 68.4882 21.1245C68.2216 21.0179 67.9916 20.8545 67.7982 20.6345C67.6049 20.4079 67.5082 20.1045 67.5082 19.7245C67.5082 19.4045 67.5949 19.1145 67.7682 18.8545C67.9482 18.5879 68.2082 18.3779 68.5482 18.2245C68.8949 18.0712 69.3049 17.9945 69.7782 17.9945C70.4782 17.9945 71.0282 18.1679 71.4282 18.5145C71.8349 18.8612 72.0682 19.3212 72.1282 19.8945H70.5482C70.5216 19.7012 70.4349 19.5479 70.2882 19.4345C70.1482 19.3212 69.9616 19.2645 69.7282 19.2645C69.5282 19.2645 69.3749 19.3045 69.2682 19.3845C69.1616 19.4579 69.1082 19.5612 69.1082 19.6945C69.1082 19.8545 69.1916 19.9745 69.3582 20.0545C69.5316 20.1345 69.7982 20.2145 70.1582 20.2945C70.5716 20.4012 70.9082 20.5079 71.1682 20.6145C71.4282 20.7145 71.6549 20.8812 71.8482 21.1145C72.0482 21.3412 72.1516 21.6479 72.1582 22.0345C72.1582 22.3612 72.0649 22.6545 71.8782 22.9145C71.6982 23.1679 71.4349 23.3679 71.0882 23.5145C70.7482 23.6612 70.3516 23.7345 69.8982 23.7345ZM78.7144 18.0745V23.6545H77.0044V22.8945C76.8311 23.1412 76.5944 23.3412 76.2944 23.4945C76.0011 23.6412 75.6744 23.7145 75.3144 23.7145C74.8877 23.7145 74.5111 23.6212 74.1844 23.4345C73.8577 23.2412 73.6044 22.9645 73.4244 22.6045C73.2444 22.2445 73.1544 21.8212 73.1544 21.3345V18.0745H74.8544V21.1045C74.8544 21.4779 74.9511 21.7679 75.1444 21.9745C75.3377 22.1812 75.5977 22.2845 75.9244 22.2845C76.2577 22.2845 76.5211 22.1812 76.7144 21.9745C76.9077 21.7679 77.0044 21.4779 77.0044 21.1045V18.0745H78.7144ZM87.0627 18.0145C87.756 18.0145 88.306 18.2245 88.7127 18.6445C89.126 19.0645 89.3327 19.6479 89.3327 20.3945V23.6545H87.6327V20.6245C87.6327 20.2645 87.536 19.9879 87.3427 19.7945C87.156 19.5945 86.896 19.4945 86.5627 19.4945C86.2294 19.4945 85.966 19.5945 85.7727 19.7945C85.586 19.9879 85.4927 20.2645 85.4927 20.6245V23.6545H83.7927V20.6245C83.7927 20.2645 83.696 19.9879 83.5027 19.7945C83.316 19.5945 83.056 19.4945 82.7227 19.4945C82.3894 19.4945 82.126 19.5945 81.9327 19.7945C81.746 19.9879 81.6527 20.2645 81.6527 20.6245V23.6545H79.9427V18.0745H81.6527V18.7745C81.826 18.5412 82.0527 18.3579 82.3327 18.2245C82.6127 18.0845 82.9294 18.0145 83.2827 18.0145C83.7027 18.0145 84.076 18.1045 84.4027 18.2845C84.736 18.4645 84.996 18.7212 85.1827 19.0545C85.376 18.7479 85.6394 18.4979 85.9727 18.3045C86.306 18.1112 86.6694 18.0145 87.0627 18.0145ZM95.7886 20.7745C95.7886 20.9345 95.7786 21.1012 95.7586 21.2745H91.8886C91.9153 21.6212 92.0253 21.8879 92.2186 22.0745C92.4186 22.2545 92.662 22.3445 92.9486 22.3445C93.3753 22.3445 93.672 22.1645 93.8386 21.8045H95.6586C95.5653 22.1712 95.3953 22.5012 95.1486 22.7945C94.9086 23.0879 94.6053 23.3179 94.2386 23.4845C93.872 23.6512 93.462 23.7345 93.0086 23.7345C92.462 23.7345 91.9753 23.6179 91.5486 23.3845C91.122 23.1512 90.7886 22.8179 90.5486 22.3845C90.3086 21.9512 90.1886 21.4445 90.1886 20.8645C90.1886 20.2845 90.3053 19.7779 90.5386 19.3445C90.7786 18.9112 91.112 18.5779 91.5386 18.3445C91.9653 18.1112 92.4553 17.9945 93.0086 17.9945C93.5486 17.9945 94.0286 18.1079 94.4486 18.3345C94.8686 18.5612 95.1953 18.8845 95.4286 19.3045C95.6686 19.7245 95.7886 20.2145 95.7886 20.7745ZM94.0386 20.3245C94.0386 20.0312 93.9386 19.7979 93.7386 19.6245C93.5386 19.4512 93.2886 19.3645 92.9886 19.3645C92.702 19.3645 92.4586 19.4479 92.2586 19.6145C92.0653 19.7812 91.9453 20.0179 91.8986 20.3245H94.0386ZM104.16 18.8945C104.16 19.3012 104.067 19.6745 103.88 20.0145C103.693 20.3479 103.407 20.6179 103.02 20.8245C102.633 21.0312 102.153 21.1345 101.58 21.1345H100.52V23.6545H98.8099V16.6345H101.58C102.14 16.6345 102.613 16.7312 103 16.9245C103.387 17.1179 103.677 17.3845 103.87 17.7245C104.063 18.0645 104.16 18.4545 104.16 18.8945ZM101.45 19.7745C101.777 19.7745 102.02 19.6979 102.18 19.5445C102.34 19.3912 102.42 19.1745 102.42 18.8945C102.42 18.6145 102.34 18.3979 102.18 18.2445C102.02 18.0912 101.777 18.0145 101.45 18.0145H100.52V19.7745H101.45ZM104.71 20.8545C104.71 20.2812 104.817 19.7779 105.03 19.3445C105.25 18.9112 105.547 18.5779 105.92 18.3445C106.293 18.1112 106.71 17.9945 107.17 17.9945C107.563 17.9945 107.907 18.0745 108.2 18.2345C108.5 18.3945 108.73 18.6045 108.89 18.8645V18.0745H110.6V23.6545H108.89V22.8645C108.723 23.1245 108.49 23.3345 108.19 23.4945C107.897 23.6545 107.553 23.7345 107.16 23.7345C106.707 23.7345 106.293 23.6179 105.92 23.3845C105.547 23.1445 105.25 22.8079 105.03 22.3745C104.817 21.9345 104.71 21.4279 104.71 20.8545ZM108.89 20.8645C108.89 20.4379 108.77 20.1012 108.53 19.8545C108.297 19.6079 108.01 19.4845 107.67 19.4845C107.33 19.4845 107.04 19.6079 106.8 19.8545C106.567 20.0945 106.45 20.4279 106.45 20.8545C106.45 21.2812 106.567 21.6212 106.8 21.8745C107.04 22.1212 107.33 22.2445 107.67 22.2445C108.01 22.2445 108.297 22.1212 108.53 21.8745C108.77 21.6279 108.89 21.2912 108.89 20.8645ZM113.547 19.0045C113.747 18.6979 113.997 18.4579 114.297 18.2845C114.597 18.1045 114.931 18.0145 115.297 18.0145V19.8245H114.827C114.401 19.8245 114.081 19.9179 113.867 20.1045C113.654 20.2845 113.547 20.6045 113.547 21.0645V23.6545H111.837V18.0745H113.547V19.0045ZM118.385 23.7345C117.898 23.7345 117.465 23.6512 117.085 23.4845C116.705 23.3179 116.405 23.0912 116.185 22.8045C115.965 22.5112 115.841 22.1845 115.815 21.8245H117.505C117.525 22.0179 117.615 22.1745 117.775 22.2945C117.935 22.4145 118.131 22.4745 118.365 22.4745C118.578 22.4745 118.741 22.4345 118.855 22.3545C118.975 22.2679 119.035 22.1579 119.035 22.0245C119.035 21.8645 118.951 21.7479 118.785 21.6745C118.618 21.5945 118.348 21.5079 117.975 21.4145C117.575 21.3212 117.241 21.2245 116.975 21.1245C116.708 21.0179 116.478 20.8545 116.285 20.6345C116.091 20.4079 115.995 20.1045 115.995 19.7245C115.995 19.4045 116.081 19.1145 116.255 18.8545C116.435 18.5879 116.695 18.3779 117.035 18.2245C117.381 18.0712 117.791 17.9945 118.265 17.9945C118.965 17.9945 119.515 18.1679 119.915 18.5145C120.321 18.8612 120.555 19.3212 120.615 19.8945H119.035C119.008 19.7012 118.921 19.5479 118.775 19.4345C118.635 19.3212 118.448 19.2645 118.215 19.2645C118.015 19.2645 117.861 19.3045 117.755 19.3845C117.648 19.4579 117.595 19.5612 117.595 19.6945C117.595 19.8545 117.678 19.9745 117.845 20.0545C118.018 20.1345 118.285 20.2145 118.645 20.2945C119.058 20.4012 119.395 20.5079 119.655 20.6145C119.915 20.7145 120.141 20.8812 120.335 21.1145C120.535 21.3412 120.638 21.6479 120.645 22.0345C120.645 22.3612 120.551 22.6545 120.365 22.9145C120.185 23.1679 119.921 23.3679 119.575 23.5145C119.235 23.6612 118.838 23.7345 118.385 23.7345ZM126.951 20.7745C126.951 20.9345 126.941 21.1012 126.921 21.2745H123.051C123.077 21.6212 123.187 21.8879 123.381 22.0745C123.581 22.2545 123.824 22.3445 124.111 22.3445C124.537 22.3445 124.834 22.1645 125.001 21.8045H126.821C126.727 22.1712 126.557 22.5012 126.311 22.7945C126.071 23.0879 125.767 23.3179 125.401 23.4845C125.034 23.6512 124.624 23.7345 124.171 23.7345C123.624 23.7345 123.137 23.6179 122.711 23.3845C122.284 23.1512 121.951 22.8179 121.711 22.3845C121.471 21.9512 121.351 21.4445 121.351 20.8645C121.351 20.2845 121.467 19.7779 121.701 19.3445C121.941 18.9112 122.274 18.5779 122.701 18.3445C123.127 18.1112 123.617 17.9945 124.171 17.9945C124.711 17.9945 125.191 18.1079 125.611 18.3345C126.031 18.5612 126.357 18.8845 126.591 19.3045C126.831 19.7245 126.951 20.2145 126.951 20.7745ZM125.201 20.3245C125.201 20.0312 125.101 19.7979 124.901 19.6245C124.701 19.4512 124.451 19.3645 124.151 19.3645C123.864 19.3645 123.621 19.4479 123.421 19.6145C123.227 19.7812 123.107 20.0179 123.061 20.3245H125.201ZM127.513 20.8545C127.513 20.2812 127.62 19.7779 127.833 19.3445C128.053 18.9112 128.35 18.5779 128.723 18.3445C129.096 18.1112 129.513 17.9945 129.973 17.9945C130.34 17.9945 130.673 18.0712 130.973 18.2245C131.28 18.3779 131.52 18.5845 131.693 18.8445V16.2545H133.403V23.6545H131.693V22.8545C131.533 23.1212 131.303 23.3345 131.003 23.4945C130.71 23.6545 130.366 23.7345 129.973 23.7345C129.513 23.7345 129.096 23.6179 128.723 23.3845C128.35 23.1445 128.053 22.8079 127.833 22.3745C127.62 21.9345 127.513 21.4279 127.513 20.8545ZM131.693 20.8645C131.693 20.4379 131.573 20.1012 131.333 19.8545C131.1 19.6079 130.813 19.4845 130.473 19.4845C130.133 19.4845 129.843 19.6079 129.603 19.8545C129.37 20.0945 129.253 20.4279 129.253 20.8545C129.253 21.2812 129.37 21.6212 129.603 21.8745C129.843 22.1212 130.133 22.2445 130.473 22.2445C130.813 22.2445 131.1 22.1212 131.333 21.8745C131.573 21.6279 131.693 21.2912 131.693 20.8645Z" fill="#314158"/>
<path d="M57.9541 36.97V39.01H60.3541V39.94H57.9541V42.07H60.6541V43H56.8141V36.04H60.6541V36.97H57.9541ZM64.5124 40.21L66.2924 43H65.0024L63.8124 41.13L62.6924 43H61.5024L63.2824 40.29L61.5024 37.49H62.7924L63.9824 39.36L65.1024 37.49H66.2924L64.5124 40.21ZM68.5668 38.42V41.47C68.5668 41.6767 68.6134 41.8267 68.7068 41.92C68.8068 42.0067 68.9734 42.05 69.2068 42.05H69.9068V43H69.0068C68.4934 43 68.1001 42.88 67.8268 42.64C67.5534 42.4 67.4168 42.01 67.4168 41.47V38.42H66.7668V37.49H67.4168V36.12H68.5668V37.49H69.9068V38.42H68.5668ZM72.1916 38.29C72.3583 38.01 72.5783 37.7933 72.8516 37.64C73.1316 37.48 73.4616 37.4 73.8416 37.4V38.58H73.5516C73.1049 38.58 72.7649 38.6933 72.5316 38.92C72.3049 39.1467 72.1916 39.54 72.1916 40.1V43H71.0516V37.49H72.1916V38.29ZM74.6036 40.22C74.6036 39.6667 74.717 39.1767 74.9436 38.75C75.177 38.3233 75.4903 37.9933 75.8836 37.76C76.2836 37.52 76.7236 37.4 77.2036 37.4C77.637 37.4 78.0136 37.4867 78.3336 37.66C78.6603 37.8267 78.9203 38.0367 79.1136 38.29V37.49H80.2636V43H79.1136V42.18C78.9203 42.44 78.657 42.6567 78.3236 42.83C77.9903 43.0033 77.6103 43.09 77.1836 43.09C76.7103 43.09 76.277 42.97 75.8836 42.73C75.4903 42.4833 75.177 42.1433 74.9436 41.71C74.717 41.27 74.6036 40.7733 74.6036 40.22ZM79.1136 40.24C79.1136 39.86 79.0336 39.53 78.8736 39.25C78.7203 38.97 78.517 38.7567 78.2636 38.61C78.0103 38.4633 77.737 38.39 77.4436 38.39C77.1503 38.39 76.877 38.4633 76.6236 38.61C76.3703 38.75 76.1636 38.96 76.0036 39.24C75.8503 39.5133 75.7736 39.84 75.7736 40.22C75.7736 40.6 75.8503 40.9333 76.0036 41.22C76.1636 41.5067 76.3703 41.7267 76.6236 41.88C76.8836 42.0267 77.157 42.1 77.4436 42.1C77.737 42.1 78.0103 42.0267 78.2636 41.88C78.517 41.7333 78.7203 41.52 78.8736 41.24C79.0336 40.9533 79.1136 40.62 79.1136 40.24ZM81.4751 40.24C81.4751 39.6733 81.5884 39.1767 81.8151 38.75C82.0484 38.3167 82.3684 37.9833 82.7751 37.75C83.1818 37.5167 83.6484 37.4 84.1751 37.4C84.8418 37.4 85.3918 37.56 85.8251 37.88C86.2651 38.1933 86.5618 38.6433 86.7151 39.23H85.4851C85.3851 38.9567 85.2251 38.7433 85.0051 38.59C84.7851 38.4367 84.5084 38.36 84.1751 38.36C83.7084 38.36 83.3351 38.5267 83.0551 38.86C82.7818 39.1867 82.6451 39.6467 82.6451 40.24C82.6451 40.8333 82.7818 41.2967 83.0551 41.63C83.3351 41.9633 83.7084 42.13 84.1751 42.13C84.8351 42.13 85.2718 41.84 85.4851 41.26H86.7151C86.5551 41.82 86.2551 42.2667 85.8151 42.6C85.3751 42.9267 84.8284 43.09 84.1751 43.09C83.6484 43.09 83.1818 42.9733 82.7751 42.74C82.3684 42.5 82.0484 42.1667 81.8151 41.74C81.5884 41.3067 81.4751 40.8067 81.4751 40.24ZM89.2753 38.42V41.47C89.2753 41.6767 89.322 41.8267 89.4153 41.92C89.5153 42.0067 89.682 42.05 89.9153 42.05H90.6153V43H89.7153C89.202 43 88.8086 42.88 88.5353 42.64C88.262 42.4 88.1253 42.01 88.1253 41.47V38.42H87.4753V37.49H88.1253V36.12H89.2753V37.49H90.6153V38.42H89.2753ZM96.8101 40.11C96.8101 40.3167 96.7968 40.5033 96.7701 40.67H92.5601C92.5935 41.11 92.7568 41.4633 93.0501 41.73C93.3435 41.9967 93.7035 42.13 94.1301 42.13C94.7435 42.13 95.1768 41.8733 95.4301 41.36H96.6601C96.4935 41.8667 96.1901 42.2833 95.7501 42.61C95.3168 42.93 94.7768 43.09 94.1301 43.09C93.6035 43.09 93.1301 42.9733 92.7101 42.74C92.2968 42.5 91.9701 42.1667 91.7301 41.74C91.4968 41.3067 91.3801 40.8067 91.3801 40.24C91.3801 39.6733 91.4935 39.1767 91.7201 38.75C91.9535 38.3167 92.2768 37.9833 92.6901 37.75C93.1101 37.5167 93.5901 37.4 94.1301 37.4C94.6501 37.4 95.1135 37.5133 95.5201 37.74C95.9268 37.9667 96.2435 38.2867 96.4701 38.7C96.6968 39.1067 96.8101 39.5767 96.8101 40.11ZM95.6201 39.75C95.6135 39.33 95.4635 38.9933 95.1701 38.74C94.8768 38.4867 94.5135 38.36 94.0801 38.36C93.6868 38.36 93.3501 38.4867 93.0701 38.74C92.7901 38.9867 92.6235 39.3233 92.5701 39.75H95.6201ZM97.6461 40.22C97.6461 39.6667 97.7595 39.1767 97.9861 38.75C98.2195 38.3233 98.5328 37.9933 98.9261 37.76C99.3261 37.52 99.7695 37.4 100.256 37.4C100.616 37.4 100.969 37.48 101.316 37.64C101.669 37.7933 101.949 38 102.156 38.26V35.6H103.306V43H102.156V42.17C101.969 42.4367 101.709 42.6567 101.376 42.83C101.049 43.0033 100.673 43.09 100.246 43.09C99.7661 43.09 99.3261 42.97 98.9261 42.73C98.5328 42.4833 98.2195 42.1433 97.9861 41.71C97.7595 41.27 97.6461 40.7733 97.6461 40.22ZM102.156 40.24C102.156 39.86 102.076 39.53 101.916 39.25C101.763 38.97 101.559 38.7567 101.306 38.61C101.053 38.4633 100.779 38.39 100.486 38.39C100.193 38.39 99.9195 38.4633 99.6661 38.61C99.4128 38.75 99.2061 38.96 99.0461 39.24C98.8928 39.5133 98.8161 39.84 98.8161 40.22C98.8161 40.6 98.8928 40.9333 99.0461 41.22C99.2061 41.5067 99.4128 41.7267 99.6661 41.88C99.9261 42.0267 100.199 42.1 100.486 42.1C100.779 42.1 101.053 42.0267 101.306 41.88C101.559 41.7333 101.763 41.52 101.916 41.24C102.076 40.9533 102.156 40.62 102.156 40.24ZM107.289 36.75V35.71H109.369V43H108.219V36.75H107.289ZM115.73 36.69H112.38V38.68C112.52 38.4933 112.726 38.3367 113 38.21C113.28 38.0833 113.576 38.02 113.89 38.02C114.45 38.02 114.903 38.14 115.25 38.38C115.603 38.62 115.853 38.9233 116 39.29C116.153 39.6567 116.23 40.0433 116.23 40.45C116.23 40.9433 116.133 41.3833 115.94 41.77C115.753 42.15 115.47 42.45 115.09 42.67C114.716 42.89 114.256 43 113.71 43C112.983 43 112.4 42.82 111.96 42.46C111.52 42.1 111.256 41.6233 111.17 41.03H112.28C112.353 41.3433 112.516 41.5933 112.77 41.78C113.023 41.96 113.34 42.05 113.72 42.05C114.193 42.05 114.546 41.9067 114.78 41.62C115.02 41.3333 115.14 40.9533 115.14 40.48C115.14 40 115.02 39.6333 114.78 39.38C114.54 39.12 114.186 38.99 113.72 38.99C113.393 38.99 113.116 39.0733 112.89 39.24C112.67 39.4 112.51 39.62 112.41 39.9H111.33V35.69H115.73V36.69ZM119.972 40.24C119.972 39.6733 120.086 39.1767 120.312 38.75C120.546 38.3167 120.866 37.9833 121.272 37.75C121.679 37.5167 122.146 37.4 122.672 37.4C123.339 37.4 123.889 37.56 124.322 37.88C124.762 38.1933 125.059 38.6433 125.212 39.23H123.982C123.882 38.9567 123.722 38.7433 123.502 38.59C123.282 38.4367 123.006 38.36 122.672 38.36C122.206 38.36 121.832 38.5267 121.552 38.86C121.279 39.1867 121.142 39.6467 121.142 40.24C121.142 40.8333 121.279 41.2967 121.552 41.63C121.832 41.9633 122.206 42.13 122.672 42.13C123.332 42.13 123.769 41.84 123.982 41.26H125.212C125.052 41.82 124.752 42.2667 124.312 42.6C123.872 42.9267 123.326 43.09 122.672 43.09C122.146 43.09 121.679 42.9733 121.272 42.74C120.866 42.5 120.546 42.1667 120.312 41.74C120.086 41.3067 119.972 40.8067 119.972 40.24ZM128.832 43.09C128.312 43.09 127.842 42.9733 127.422 42.74C127.002 42.5 126.672 42.1667 126.432 41.74C126.192 41.3067 126.072 40.8067 126.072 40.24C126.072 39.68 126.196 39.1833 126.442 38.75C126.689 38.3167 127.026 37.9833 127.452 37.75C127.879 37.5167 128.356 37.4 128.882 37.4C129.409 37.4 129.886 37.5167 130.312 37.75C130.739 37.9833 131.076 38.3167 131.322 38.75C131.569 39.1833 131.692 39.68 131.692 40.24C131.692 40.8 131.566 41.2967 131.312 41.73C131.059 42.1633 130.712 42.5 130.272 42.74C129.839 42.9733 129.359 43.09 128.832 43.09ZM128.832 42.1C129.126 42.1 129.399 42.03 129.652 41.89C129.912 41.75 130.122 41.54 130.282 41.26C130.442 40.98 130.522 40.64 130.522 40.24C130.522 39.84 130.446 39.5033 130.292 39.23C130.139 38.95 129.936 38.74 129.682 38.6C129.429 38.46 129.156 38.39 128.862 38.39C128.569 38.39 128.296 38.46 128.042 38.6C127.796 38.74 127.599 38.95 127.452 39.23C127.306 39.5033 127.232 39.84 127.232 40.24C127.232 40.8333 127.382 41.2933 127.682 41.62C127.989 41.94 128.372 42.1 128.832 42.1ZM134.054 38.29C134.22 38.01 134.44 37.7933 134.714 37.64C134.994 37.48 135.324 37.4 135.704 37.4V38.58H135.414C134.967 38.58 134.627 38.6933 134.394 38.92C134.167 39.1467 134.054 39.54 134.054 40.1V43H132.914V37.49H134.054V38.29ZM141.896 40.11C141.896 40.3167 141.882 40.5033 141.856 40.67H137.646C137.679 41.11 137.842 41.4633 138.136 41.73C138.429 41.9967 138.789 42.13 139.216 42.13C139.829 42.13 140.262 41.8733 140.516 41.36H141.746C141.579 41.8667 141.276 42.2833 140.836 42.61C140.402 42.93 139.862 43.09 139.216 43.09C138.689 43.09 138.216 42.9733 137.796 42.74C137.382 42.5 137.056 42.1667 136.816 41.74C136.582 41.3067 136.466 40.8067 136.466 40.24C136.466 39.6733 136.579 39.1767 136.806 38.75C137.039 38.3167 137.362 37.9833 137.776 37.75C138.196 37.5167 138.676 37.4 139.216 37.4C139.736 37.4 140.199 37.5133 140.606 37.74C141.012 37.9667 141.329 38.2867 141.556 38.7C141.782 39.1067 141.896 39.5767 141.896 40.11ZM140.706 39.75C140.699 39.33 140.549 38.9933 140.256 38.74C139.962 38.4867 139.599 38.36 139.166 38.36C138.772 38.36 138.436 38.4867 138.156 38.74C137.876 38.9867 137.709 39.3233 137.656 39.75H140.706ZM147.803 43.09C147.37 43.09 146.98 43.0133 146.633 42.86C146.293 42.7 146.023 42.4867 145.823 42.22C145.623 41.9467 145.517 41.6433 145.503 41.31H146.683C146.703 41.5433 146.813 41.74 147.013 41.9C147.22 42.0533 147.477 42.13 147.783 42.13C148.103 42.13 148.35 42.07 148.523 41.95C148.703 41.8233 148.793 41.6633 148.793 41.47C148.793 41.2633 148.693 41.11 148.493 41.01C148.3 40.91 147.99 40.8 147.563 40.68C147.15 40.5667 146.813 40.4567 146.553 40.35C146.293 40.2433 146.067 40.08 145.873 39.86C145.687 39.64 145.593 39.35 145.593 38.99C145.593 38.6967 145.68 38.43 145.853 38.19C146.027 37.9433 146.273 37.75 146.593 37.61C146.92 37.47 147.293 37.4 147.713 37.4C148.34 37.4 148.843 37.56 149.223 37.88C149.61 38.1933 149.817 38.6233 149.843 39.17H148.703C148.683 38.9233 148.583 38.7267 148.403 38.58C148.223 38.4333 147.98 38.36 147.673 38.36C147.373 38.36 147.143 38.4167 146.983 38.53C146.823 38.6433 146.743 38.7933 146.743 38.98C146.743 39.1267 146.797 39.25 146.903 39.35C147.01 39.45 147.14 39.53 147.293 39.59C147.447 39.6433 147.673 39.7133 147.973 39.8C148.373 39.9067 148.7 40.0167 148.953 40.13C149.213 40.2367 149.437 40.3967 149.623 40.61C149.81 40.8233 149.907 41.1067 149.913 41.46C149.913 41.7733 149.827 42.0533 149.653 42.3C149.48 42.5467 149.233 42.74 148.913 42.88C148.6 43.02 148.23 43.09 147.803 43.09ZM153.419 40.25L155.959 43H154.419L152.379 40.63V43H151.239V35.6H152.379V39.9L154.379 37.49H155.959L153.419 40.25ZM157.45 36.76C157.244 36.76 157.07 36.69 156.93 36.55C156.79 36.41 156.72 36.2367 156.72 36.03C156.72 35.8233 156.79 35.65 156.93 35.51C157.07 35.37 157.244 35.3 157.45 35.3C157.65 35.3 157.82 35.37 157.96 35.51C158.1 35.65 158.17 35.8233 158.17 36.03C158.17 36.2367 158.1 36.41 157.96 36.55C157.82 36.69 157.65 36.76 157.45 36.76ZM158.01 37.49V43H156.87V37.49H158.01ZM160.741 35.6V43H159.601V35.6H160.741ZM163.472 35.6V43H162.332V35.6H163.472ZM167.063 43.09C166.63 43.09 166.24 43.0133 165.893 42.86C165.553 42.7 165.283 42.4867 165.083 42.22C164.883 41.9467 164.776 41.6433 164.763 41.31H165.943C165.963 41.5433 166.073 41.74 166.273 41.9C166.48 42.0533 166.736 42.13 167.043 42.13C167.363 42.13 167.61 42.07 167.783 41.95C167.963 41.8233 168.053 41.6633 168.053 41.47C168.053 41.2633 167.953 41.11 167.753 41.01C167.56 40.91 167.25 40.8 166.823 40.68C166.41 40.5667 166.073 40.4567 165.813 40.35C165.553 40.2433 165.326 40.08 165.133 39.86C164.946 39.64 164.853 39.35 164.853 38.99C164.853 38.6967 164.94 38.43 165.113 38.19C165.286 37.9433 165.533 37.75 165.853 37.61C166.18 37.47 166.553 37.4 166.973 37.4C167.6 37.4 168.103 37.56 168.483 37.88C168.87 38.1933 169.076 38.6233 169.103 39.17H167.963C167.943 38.9233 167.843 38.7267 167.663 38.58C167.483 38.4333 167.24 38.36 166.933 38.36C166.633 38.36 166.403 38.4167 166.243 38.53C166.083 38.6433 166.003 38.7933 166.003 38.98C166.003 39.1267 166.056 39.25 166.163 39.35C166.27 39.45 166.4 39.53 166.553 39.59C166.706 39.6433 166.933 39.7133 167.233 39.8C167.633 39.9067 167.96 40.0167 168.213 40.13C168.473 40.2367 168.696 40.3967 168.883 40.61C169.07 40.8233 169.166 41.1067 169.173 41.46C169.173 41.7733 169.086 42.0533 168.913 42.3C168.74 42.5467 168.493 42.74 168.173 42.88C167.86 43.02 167.49 43.09 167.063 43.09ZM59.1241 52.42H58.1041V57H56.9541V52.42H56.3041V51.49H56.9541V51.1C56.9541 50.4667 57.1208 50.0067 57.4541 49.72C57.7941 49.4267 58.3241 49.28 59.0441 49.28V50.23C58.6975 50.23 58.4541 50.2967 58.3141 50.43C58.1741 50.5567 58.1041 50.78 58.1041 51.1V51.49H59.1241V52.42ZM61.3686 52.29C61.5353 52.01 61.7553 51.7933 62.0286 51.64C62.3086 51.48 62.6386 51.4 63.0186 51.4V52.58H62.7286C62.2819 52.58 61.9419 52.6933 61.7086 52.92C61.4819 53.1467 61.3686 53.54 61.3686 54.1V57H60.2286V51.49H61.3686V52.29ZM66.5506 57.09C66.0306 57.09 65.5606 56.9733 65.1406 56.74C64.7206 56.5 64.3906 56.1667 64.1506 55.74C63.9106 55.3067 63.7906 54.8067 63.7906 54.24C63.7906 53.68 63.9139 53.1833 64.1606 52.75C64.4073 52.3167 64.7439 51.9833 65.1706 51.75C65.5973 51.5167 66.0739 51.4 66.6006 51.4C67.1273 51.4 67.6039 51.5167 68.0306 51.75C68.4573 51.9833 68.7939 52.3167 69.0406 52.75C69.2873 53.1833 69.4106 53.68 69.4106 54.24C69.4106 54.8 69.2839 55.2967 69.0306 55.73C68.7773 56.1633 68.4306 56.5 67.9906 56.74C67.5573 56.9733 67.0773 57.09 66.5506 57.09ZM66.5506 56.1C66.8439 56.1 67.1173 56.03 67.3706 55.89C67.6306 55.75 67.8406 55.54 68.0006 55.26C68.1606 54.98 68.2406 54.64 68.2406 54.24C68.2406 53.84 68.1639 53.5033 68.0106 53.23C67.8573 52.95 67.6539 52.74 67.4006 52.6C67.1473 52.46 66.8739 52.39 66.5806 52.39C66.2873 52.39 66.0139 52.46 65.7606 52.6C65.5139 52.74 65.3173 52.95 65.1706 53.23C65.0239 53.5033 64.9506 53.84 64.9506 54.24C64.9506 54.8333 65.1006 55.2933 65.4006 55.62C65.7073 55.94 66.0906 56.1 66.5506 56.1ZM77.3017 51.4C77.735 51.4 78.1217 51.49 78.4617 51.67C78.8083 51.85 79.0783 52.1167 79.2717 52.47C79.4717 52.8233 79.5717 53.25 79.5717 53.75V57H78.4417V53.92C78.4417 53.4267 78.3183 53.05 78.0717 52.79C77.825 52.5233 77.4883 52.39 77.0617 52.39C76.635 52.39 76.295 52.5233 76.0417 52.79C75.795 53.05 75.6717 53.4267 75.6717 53.92V57H74.5417V53.92C74.5417 53.4267 74.4183 53.05 74.1717 52.79C73.925 52.5233 73.5883 52.39 73.1617 52.39C72.735 52.39 72.395 52.5233 72.1417 52.79C71.895 53.05 71.7717 53.4267 71.7717 53.92V57H70.6317V51.49H71.7717V52.12C71.9583 51.8933 72.195 51.7167 72.4817 51.59C72.7683 51.4633 73.075 51.4 73.4017 51.4C73.8417 51.4 74.235 51.4933 74.5817 51.68C74.9283 51.8667 75.195 52.1367 75.3817 52.49C75.5483 52.1567 75.8083 51.8933 76.1617 51.7C76.515 51.5 76.895 51.4 77.3017 51.4ZM88.7982 51.49V57H87.6582V56.35C87.4782 56.5767 87.2415 56.7567 86.9482 56.89C86.6615 57.0167 86.3549 57.08 86.0282 57.08C85.5949 57.08 85.2049 56.99 84.8582 56.81C84.5182 56.63 84.2482 56.3633 84.0482 56.01C83.8549 55.6567 83.7582 55.23 83.7582 54.73V51.49H84.8882V54.56C84.8882 55.0533 85.0115 55.4333 85.2582 55.7C85.5049 55.96 85.8415 56.09 86.2682 56.09C86.6949 56.09 87.0315 55.96 87.2782 55.7C87.5315 55.4333 87.6582 55.0533 87.6582 54.56V51.49H88.7982ZM91.5365 52.3C91.7298 52.0467 91.9931 51.8333 92.3265 51.66C92.6598 51.4867 93.0365 51.4 93.4565 51.4C93.9365 51.4 94.3731 51.52 94.7665 51.76C95.1665 51.9933 95.4798 52.3233 95.7065 52.75C95.9331 53.1767 96.0465 53.6667 96.0465 54.22C96.0465 54.7733 95.9331 55.27 95.7065 55.71C95.4798 56.1433 95.1665 56.4833 94.7665 56.73C94.3731 56.97 93.9365 57.09 93.4565 57.09C93.0365 57.09 92.6631 57.0067 92.3365 56.84C92.0098 56.6667 91.7431 56.4533 91.5365 56.2V59.62H90.3965V51.49H91.5365V52.3ZM94.8865 54.22C94.8865 53.84 94.8065 53.5133 94.6465 53.24C94.4931 52.96 94.2865 52.75 94.0265 52.61C93.7731 52.4633 93.4998 52.39 93.2065 52.39C92.9198 52.39 92.6465 52.4633 92.3865 52.61C92.1331 52.7567 91.9265 52.97 91.7665 53.25C91.6131 53.53 91.5365 53.86 91.5365 54.24C91.5365 54.62 91.6131 54.9533 91.7665 55.24C91.9265 55.52 92.1331 55.7333 92.3865 55.88C92.6465 56.0267 92.9198 56.1 93.2065 56.1C93.4998 56.1 93.7731 56.0267 94.0265 55.88C94.2865 55.7267 94.4931 55.5067 94.6465 55.22C94.8065 54.9333 94.8865 54.6 94.8865 54.22ZM98.408 49.6V57H97.268V49.6H98.408ZM102.389 57.09C101.869 57.09 101.399 56.9733 100.979 56.74C100.559 56.5 100.229 56.1667 99.9888 55.74C99.7488 55.3067 99.6288 54.8067 99.6288 54.24C99.6288 53.68 99.7521 53.1833 99.9988 52.75C100.245 52.3167 100.582 51.9833 101.009 51.75C101.435 51.5167 101.912 51.4 102.439 51.4C102.965 51.4 103.442 51.5167 103.869 51.75C104.295 51.9833 104.632 52.3167 104.879 52.75C105.125 53.1833 105.249 53.68 105.249 54.24C105.249 54.8 105.122 55.2967 104.869 55.73C104.615 56.1633 104.269 56.5 103.829 56.74C103.395 56.9733 102.915 57.09 102.389 57.09ZM102.389 56.1C102.682 56.1 102.955 56.03 103.209 55.89C103.469 55.75 103.679 55.54 103.839 55.26C103.999 54.98 104.079 54.64 104.079 54.24C104.079 53.84 104.002 53.5033 103.849 53.23C103.695 52.95 103.492 52.74 103.239 52.6C102.985 52.46 102.712 52.39 102.419 52.39C102.125 52.39 101.852 52.46 101.599 52.6C101.352 52.74 101.155 52.95 101.009 53.23C100.862 53.5033 100.789 53.84 100.789 54.24C100.789 54.8333 100.939 55.2933 101.239 55.62C101.545 55.94 101.929 56.1 102.389 56.1ZM106.09 54.22C106.09 53.6667 106.203 53.1767 106.43 52.75C106.663 52.3233 106.977 51.9933 107.37 51.76C107.77 51.52 108.21 51.4 108.69 51.4C109.123 51.4 109.5 51.4867 109.82 51.66C110.147 51.8267 110.407 52.0367 110.6 52.29V51.49H111.75V57H110.6V56.18C110.407 56.44 110.143 56.6567 109.81 56.83C109.477 57.0033 109.097 57.09 108.67 57.09C108.197 57.09 107.763 56.97 107.37 56.73C106.977 56.4833 106.663 56.1433 106.43 55.71C106.203 55.27 106.09 54.7733 106.09 54.22ZM110.6 54.24C110.6 53.86 110.52 53.53 110.36 53.25C110.207 52.97 110.003 52.7567 109.75 52.61C109.497 52.4633 109.223 52.39 108.93 52.39C108.637 52.39 108.363 52.4633 108.11 52.61C107.857 52.75 107.65 52.96 107.49 53.24C107.337 53.5133 107.26 53.84 107.26 54.22C107.26 54.6 107.337 54.9333 107.49 55.22C107.65 55.5067 107.857 55.7267 108.11 55.88C108.37 56.0267 108.643 56.1 108.93 56.1C109.223 56.1 109.497 56.0267 109.75 55.88C110.003 55.7333 110.207 55.52 110.36 55.24C110.52 54.9533 110.6 54.62 110.6 54.24ZM112.961 54.22C112.961 53.6667 113.075 53.1767 113.301 52.75C113.535 52.3233 113.848 51.9933 114.241 51.76C114.641 51.52 115.085 51.4 115.571 51.4C115.931 51.4 116.285 51.48 116.631 51.64C116.985 51.7933 117.265 52 117.471 52.26V49.6H118.621V57H117.471V56.17C117.285 56.4367 117.025 56.6567 116.691 56.83C116.365 57.0033 115.988 57.09 115.561 57.09C115.081 57.09 114.641 56.97 114.241 56.73C113.848 56.4833 113.535 56.1433 113.301 55.71C113.075 55.27 112.961 54.7733 112.961 54.22ZM117.471 54.24C117.471 53.86 117.391 53.53 117.231 53.25C117.078 52.97 116.875 52.7567 116.621 52.61C116.368 52.4633 116.095 52.39 115.801 52.39C115.508 52.39 115.235 52.4633 114.981 52.61C114.728 52.75 114.521 52.96 114.361 53.24C114.208 53.5133 114.131 53.84 114.131 54.22C114.131 54.6 114.208 54.9333 114.361 55.22C114.521 55.5067 114.728 55.7267 114.981 55.88C115.241 56.0267 115.515 56.1 115.801 56.1C116.095 56.1 116.368 56.0267 116.621 55.88C116.875 55.7333 117.078 55.52 117.231 55.24C117.391 54.9533 117.471 54.62 117.471 54.24ZM125.263 54.11C125.263 54.3167 125.249 54.5033 125.223 54.67H121.013C121.046 55.11 121.209 55.4633 121.503 55.73C121.796 55.9967 122.156 56.13 122.583 56.13C123.196 56.13 123.629 55.8733 123.883 55.36H125.113C124.946 55.8667 124.643 56.2833 124.203 56.61C123.769 56.93 123.229 57.09 122.583 57.09C122.056 57.09 121.583 56.9733 121.163 56.74C120.749 56.5 120.423 56.1667 120.183 55.74C119.949 55.3067 119.833 54.8067 119.833 54.24C119.833 53.6733 119.946 53.1767 120.173 52.75C120.406 52.3167 120.729 51.9833 121.143 51.75C121.563 51.5167 122.043 51.4 122.583 51.4C123.103 51.4 123.566 51.5133 123.973 51.74C124.379 51.9667 124.696 52.2867 124.923 52.7C125.149 53.1067 125.263 53.5767 125.263 54.11ZM124.073 53.75C124.066 53.33 123.916 52.9933 123.623 52.74C123.329 52.4867 122.966 52.36 122.533 52.36C122.139 52.36 121.803 52.4867 121.523 52.74C121.243 52.9867 121.076 53.3233 121.023 53.75H124.073ZM126.099 54.22C126.099 53.6667 126.212 53.1767 126.439 52.75C126.672 52.3233 126.985 51.9933 127.379 51.76C127.779 51.52 128.222 51.4 128.709 51.4C129.069 51.4 129.422 51.48 129.769 51.64C130.122 51.7933 130.402 52 130.609 52.26V49.6H131.759V57H130.609V56.17C130.422 56.4367 130.162 56.6567 129.829 56.83C129.502 57.0033 129.125 57.09 128.699 57.09C128.219 57.09 127.779 56.97 127.379 56.73C126.985 56.4833 126.672 56.1433 126.439 55.71C126.212 55.27 126.099 54.7733 126.099 54.22ZM130.609 54.24C130.609 53.86 130.529 53.53 130.369 53.25C130.215 52.97 130.012 52.7567 129.759 52.61C129.505 52.4633 129.232 52.39 128.939 52.39C128.645 52.39 128.372 52.4633 128.119 52.61C127.865 52.75 127.659 52.96 127.499 53.24C127.345 53.5133 127.269 53.84 127.269 54.22C127.269 54.6 127.345 54.9333 127.499 55.22C127.659 55.5067 127.865 55.7267 128.119 55.88C128.379 56.0267 128.652 56.1 128.939 56.1C129.232 56.1 129.505 56.0267 129.759 55.88C130.012 55.7333 130.215 55.52 130.369 55.24C130.529 54.9533 130.609 54.62 130.609 54.24ZM140.902 52.12C140.902 52.4733 140.819 52.8067 140.652 53.12C140.485 53.4333 140.219 53.69 139.852 53.89C139.485 54.0833 139.015 54.18 138.442 54.18H137.182V57H136.042V50.05H138.442C138.975 50.05 139.425 50.1433 139.792 50.33C140.165 50.51 140.442 50.7567 140.622 51.07C140.809 51.3833 140.902 51.7333 140.902 52.12ZM138.442 53.25C138.875 53.25 139.199 53.1533 139.412 52.96C139.625 52.76 139.732 52.48 139.732 52.12C139.732 51.36 139.302 50.98 138.442 50.98H137.182V53.25H138.442ZM144.353 50.05C145.093 50.05 145.74 50.1933 146.293 50.48C146.853 50.76 147.283 51.1667 147.583 51.7C147.89 52.2267 148.043 52.8433 148.043 53.55C148.043 54.2567 147.89 54.87 147.583 55.39C147.283 55.91 146.853 56.31 146.293 56.59C145.74 56.8633 145.093 57 144.353 57H142.083V50.05H144.353ZM144.353 56.07C145.167 56.07 145.79 55.85 146.223 55.41C146.657 54.97 146.873 54.35 146.873 53.55C146.873 52.7433 146.657 52.1133 146.223 51.66C145.79 51.2067 145.167 50.98 144.353 50.98H143.223V56.07H144.353ZM153.357 50.05V50.98H150.407V53.03H152.707V53.96H150.407V57H149.267V50.05H153.357ZM154.968 57.07C154.761 57.07 154.588 57 154.448 56.86C154.308 56.72 154.238 56.5467 154.238 56.34C154.238 56.1333 154.308 55.96 154.448 55.82C154.588 55.68 154.761 55.61 154.968 55.61C155.168 55.61 155.338 55.68 155.478 55.82C155.618 55.96 155.688 56.1333 155.688 56.34C155.688 56.5467 155.618 56.72 155.478 56.86C155.338 57 155.168 57.07 154.968 57.07Z" fill="#62748E"/>
</g>
<defs>
<filter id="filter0_dd_472_234" x="1.23978e-05" y="0" width="211.128" height="105.128" filterUnits="userSpaceOnUse" color-interpolation-filters="sRGB">
<feFlood flood-opacity="0" result="BackgroundImageFix"/>
<feColorMatrix in="SourceAlpha" type="matrix" values="0 0 0 0 0 0 0 0 0 0 0 0 0 0 0 0 0 0 127 0" result="hardAlpha"/>
<feMorphology radius="4.81924" operator="erode" in="SourceAlpha" result="effect1_dropShadow_472_234"/>
<feOffset dy="6.42565"/>
<feGaussianBlur stdDeviation="4.01603"/>
<feComposite in2="hardAlpha" operator="out"/>
<feColorMatrix type="matrix" values="0 0 0 0 0 0 0 0 0 0 0 0 0 0 0 0 0 0 0.1 0"/>
<feBlend mode="normal" in2="BackgroundImageFix" result="effect1_dropShadow_472_234"/>
<feColorMatrix in="SourceAlpha" type="matrix" values="0 0 0 0 0 0 0 0 0 0 0 0 0 0 0 0 0 0 127 0" result="hardAlpha"/>
<feMorphology radius="4.01603" operator="erode" in="SourceAlpha" result="effect2_dropShadow_472_234"/>
<feOffset dy="16.0641"/>
<feGaussianBlur stdDeviation="10.0401"/>
<feComposite in2="hardAlpha" operator="out"/>
<feColorMatrix type="matrix" values="0 0 0 0 0 0 0 0 0 0 0 0 0 0 0 0 0 0 0.1 0"/>
<feBlend mode="normal" in2="effect1_dropShadow_472_234" result="effect2_dropShadow_472_234"/>
<feBlend mode="normal" in="SourceGraphic" in2="effect2_dropShadow_472_234" result="shape"/>
</filter>
<clipPath id="clip0_472_234">
<rect width="16.4072" height="16.4072" fill="white" transform="translate(28.9155 11.0735)"/>
</clipPath>
</defs>
</svg>
