<svg preserveAspectRatio="none" width="100%" height="100%" overflow="visible" style="display: block;" viewBox="0 0 12.9085 12.9085" fill="none" xmlns="http://www.w3.org/2000/svg">
<g id="Icon">
<path id="Vector" d="M6.45427 6.99219C6.75132 6.99219 6.99213 6.75138 6.99213 6.45434C6.99213 6.15729 6.75132 5.91648 6.45427 5.91648C6.15722 5.91648 5.91642 6.15729 5.91642 6.45434C5.91642 6.75138 6.15722 6.99219 6.45427 6.99219Z" stroke="var(--stroke-0, #D1D5DC)" stroke-width="1.07566" stroke-linecap="round" stroke-linejoin="round"/>
<path id="Vector_2" d="M10.2192 6.99219C10.5162 6.99219 10.757 6.75138 10.757 6.45434C10.757 6.15729 10.5162 5.91648 10.2192 5.91648C9.92211 5.91648 9.6813 6.15729 9.6813 6.45434C9.6813 6.75138 9.92211 6.99219 10.2192 6.99219Z" stroke="var(--stroke-0, #D1D5DC)" stroke-width="1.07566" stroke-linecap="round" stroke-linejoin="round"/>
<path id="Vector_3" d="M2.68924 6.99219C2.98628 6.99219 3.22709 6.75138 3.22709 6.45434C3.22709 6.15729 2.98628 5.91648 2.68924 5.91648C2.39219 5.91648 2.15138 6.15729 2.15138 6.45434C2.15138 6.75138 2.39219 6.99219 2.68924 6.99219Z" stroke="var(--stroke-0, #D1D5DC)" stroke-width="1.07566" stroke-linecap="round" stroke-linejoin="round"/>
</g>
</svg>
