<svg width="160" height="160" viewBox="0 0 160 160" fill="none" xmlns="http://www.w3.org/2000/svg">
<g filter="url(#filter0_d_472_201)">
<rect x="25" y="26.25" width="110" height="110" rx="55" fill="#0B5CD5" shape-rendering="crispEdges"/>
<g filter="url(#filter1_d_472_201)">
<rect x="44.2983" y="45.5482" width="71.4035" height="71.4035" rx="35.7018" fill="#0B5CD5" shape-rendering="crispEdges"/>
<rect x="44.5396" y="45.7894" width="70.9211" height="70.9211" rx="35.4605" stroke="white" stroke-width="0.482456" shape-rendering="crispEdges"/>
<path d="M60.4226 81.6303H70.793C75.2347 81.6622 78.8913 84.1857 79.4511 88.4861H80.564C81.127 84.1648 84.8166 81.6281 89.2869 81.6281H99.0458V90.4359H92.1978V91.3949H99.5242C99.6514 91.3949 99.7733 91.3443 99.8632 91.2543C99.9531 91.1643 100.004 91.0422 100.004 90.9149V81.1448C100.004 81.0175 99.9531 80.8954 99.8632 80.8053C99.7733 80.7153 99.6514 80.6647 99.5242 80.6647H89.2858C84.8155 80.6647 81.1259 78.1325 80.5629 73.8057H79.4499C78.8869 78.1281 75.1973 80.6647 70.727 80.6647H60.9076C60.9461 77.8088 61.0077 73.3102 61.0286 71.8569H67.8204V70.8969H60.6338C60.6105 70.8933 60.587 70.8914 60.5634 70.8914C60.4303 70.8914 60.1301 70.9387 60.085 71.3769C60.085 71.3868 60.085 71.3967 60.085 71.4055C60.085 71.4143 60.085 71.4495 60.085 71.4727L60.0641 72.8918C60.0509 73.8078 60.0344 75.0299 60.0179 76.252L59.9519 81.1393C59.9511 81.2028 59.9628 81.2658 59.9864 81.3248C60.01 81.3837 60.045 81.4374 60.0894 81.4828C60.1778 81.5724 60.2969 81.6251 60.4226 81.6303Z" fill="white"/>
<path d="M72.4731 91.6087H87.5392V90.2347H72.4731V91.6087Z" fill="white"/>
<path d="M65.2687 101.513H65.3259C66.7072 101.524 68.0443 101.026 69.0814 100.112C69.6674 99.5951 70.136 98.9582 70.4558 98.2446C70.7756 97.531 70.9392 96.7571 70.9356 95.975V83.3754H69.5631V95.975C69.5662 96.5768 69.4376 97.172 69.1862 97.7186C68.9349 98.2653 68.5669 98.7502 68.1082 99.1392C67.3332 99.7937 66.3496 100.148 65.3358 100.139H65.2676C64.6665 100.142 64.072 100.013 63.5259 99.7615C62.9799 99.5099 62.4956 99.1415 62.107 98.6823C61.4533 97.9064 61.099 96.9217 61.1085 95.9067V95.8384C61.099 94.8235 61.4533 93.8387 62.107 93.0629C62.4956 92.6037 62.98 92.2353 63.526 91.9837C64.072 91.732 64.6665 91.6032 65.2676 91.6063H68.0235V90.2344H65.2676C64.4864 90.2308 63.7134 90.3946 63.0006 90.7148C62.2878 91.0349 61.6516 91.5041 61.1349 92.0907C60.2232 93.1289 59.7256 94.4671 59.7371 95.8495V95.8968C59.7256 97.2797 60.2236 98.6183 61.136 99.6566C61.6527 100.243 62.2888 100.713 63.0017 101.033C63.7145 101.353 64.4875 101.517 65.2687 101.513Z" fill="white"/>
<path d="M72.4739 72.0625H87.54V70.6885H72.4739V72.0625Z" fill="white"/>
<path d="M70.936 66.637C70.953 65.5716 71.3597 64.5494 72.0789 63.7639C72.7982 62.9785 73.7802 62.4844 74.8389 62.3751C75.4122 62.336 75.9873 62.415 76.5288 62.6074C77.0703 62.7998 77.5666 63.1014 77.9869 63.4937C78.4072 63.8859 78.7426 64.3603 78.9723 64.8875C79.2021 65.4148 79.3213 65.9836 79.3225 66.5588V69.1473H80.6905V66.5588C80.6905 65.081 80.1041 63.6638 79.0604 62.6188C78.0166 61.5739 76.601 60.9868 75.1248 60.9868C73.6487 60.9868 72.2331 61.5739 71.1893 62.6188C70.1456 63.6638 69.5592 65.081 69.5592 66.5588V78.9162H70.9316L70.936 66.637Z" fill="white"/>
<path d="M98.4934 62.5162C97.4372 61.5238 96.0391 60.9779 94.5906 60.9925C93.5806 60.9864 92.5894 61.2662 91.7313 61.7995C90.9255 62.2988 90.2602 62.9955 89.7984 63.8239C89.3365 64.6524 89.0934 65.585 89.092 66.5337V78.9297H90.4644V66.5304C90.4666 65.817 90.6504 65.116 90.9982 64.4934C91.3461 63.8708 91.8466 63.3472 92.4527 62.972C93.1025 62.5695 93.8529 62.3596 94.6169 62.3665C95.7081 62.3548 96.7616 62.7654 97.5576 63.5126C98.1606 64.0861 98.578 64.8274 98.7559 65.6408C98.9338 66.4542 98.864 67.3023 98.5556 68.0756C98.2472 68.8489 97.7143 69.5119 97.0257 69.9789C96.3372 70.4459 95.5245 70.6955 94.6928 70.6954H91.9996V72.0694H94.6928C95.7988 72.0694 96.8794 71.7374 97.7951 71.1164C98.7107 70.4954 99.4195 69.6138 99.8297 68.5855C100.24 67.5572 100.333 66.4294 100.096 65.3477C99.8599 64.266 99.305 63.2801 98.5033 62.5173L98.4934 62.5162Z" fill="white"/>
<path d="M89.081 95.7976C89.0692 96.888 88.6466 97.9338 87.8977 98.7257C87.1487 99.5175 86.1287 99.997 85.0418 100.068C84.4785 100.089 83.9168 99.9958 83.3903 99.7943C82.8638 99.5927 82.3833 99.287 81.9775 98.8953C81.5717 98.5037 81.2489 98.0341 81.0285 97.5147C80.8081 96.9953 80.6945 96.4368 80.6946 95.8724V93.1475H79.3222V95.8724C79.3202 96.6043 79.4632 97.3293 79.7429 98.0055C80.0227 98.6817 80.4336 99.2956 80.9519 99.8117L80.9795 99.8393C82.0184 100.87 83.4229 101.447 84.8856 101.443H84.9648C86.4253 101.417 87.8176 100.819 88.8433 99.7782C89.869 98.7369 90.4466 97.3349 90.4524 95.8724V83.3796H89.0799L89.081 95.7976Z" fill="white"/>
</g>
</g>
<defs>
<filter id="filter0_d_472_201" x="-1.90735e-06" y="-2.02656e-06" width="160" height="160" filterUnits="userSpaceOnUse" color-interpolation-filters="sRGB">
<feFlood flood-opacity="0" result="BackgroundImageFix"/>
<feColorMatrix in="SourceAlpha" type="matrix" values="0 0 0 0 0 0 0 0 0 0 0 0 0 0 0 0 0 0 127 0" result="hardAlpha"/>
<feOffset dy="-1.25"/>
<feGaussianBlur stdDeviation="12.5"/>
<feComposite in2="hardAlpha" operator="out"/>
<feColorMatrix type="matrix" values="0 0 0 0 0 0 0 0 0 0 0 0 0 0 0 0 0 0 0.4 0"/>
<feBlend mode="normal" in2="BackgroundImageFix" result="effect1_dropShadow_472_201"/>
<feBlend mode="normal" in="SourceGraphic" in2="effect1_dropShadow_472_201" result="shape"/>
</filter>
<filter id="filter1_d_472_201" x="38.5089" y="39.7587" width="82.9825" height="82.9825" filterUnits="userSpaceOnUse" color-interpolation-filters="sRGB">
<feFlood flood-opacity="0" result="BackgroundImageFix"/>
<feColorMatrix in="SourceAlpha" type="matrix" values="0 0 0 0 0 0 0 0 0 0 0 0 0 0 0 0 0 0 127 0" result="hardAlpha"/>
<feMorphology radius="1.92982" operator="dilate" in="SourceAlpha" result="effect1_dropShadow_472_201"/>
<feOffset/>
<feGaussianBlur stdDeviation="1.92982"/>
<feComposite in2="hardAlpha" operator="out"/>
<feColorMatrix type="matrix" values="0 0 0 0 0.0571843 0 0 0 0 0.0900425 0 0 0 0 0.168796 0 0 0 0.2 0"/>
<feBlend mode="normal" in2="BackgroundImageFix" result="effect1_dropShadow_472_201"/>
<feBlend mode="normal" in="SourceGraphic" in2="effect1_dropShadow_472_201" result="shape"/>
</filter>
</defs>
</svg>
